<?xml version="1.0" standalone="no"?>
<!DOCTYPE svg PUBLIC "-//W3C//DTD SVG 20010904//EN"
 "http://www.w3.org/TR/2001/REC-SVG-20010904/DTD/svg10.dtd">
<svg version="1.0" xmlns="http://www.w3.org/2000/svg"
 width="700.000000pt" height="700.000000pt" viewBox="0 0 700.000000 700.000000"
 preserveAspectRatio="xMidYMid meet">
<metadata>
Created by potrace 1.11, written by Peter Selinger 2001-2013
</metadata>
<g transform="translate(0.000000,700.000000) scale(0.100000,-0.100000)"
fill="#000000" stroke="none">
<path d="M0 3500 l0 -3499 2163 0 c2022 1 2159 2 2115 17 -67 24 -128 79 -163
147 -24 49 -29 70 -29 129 1 111 22 142 253 374 111 110 201 202 201 204 0 2
-640 3 -1423 3 -782 1 -1458 4 -1502 7 -207 17 -465 104 -639 216 -43 27 -153
109 -172 127 -6 5 -28 26 -50 45 -215 196 -399 532 -439 805 -4 22 -9 51 -12
65 -11 56 -9 325 4 403 30 184 102 393 176 511 7 11 26 43 44 72 48 78 143
192 218 263 241 226 533 361 863 396 20 2 865 5 1877 6 2044 1 1926 -3 2100
70 325 135 537 452 539 804 1 420 -305 787 -719 862 -67 12 -303 14 -1475 14
-767 0 -1413 0 -1435 0 l-39 -1 206 -207 c219 -220 243 -253 251 -346 14 -153
-88 -287 -239 -314 -55 -11 -139 3 -189 29 -17 9 -243 228 -502 488 -349 348
-478 483 -495 518 -14 30 -24 71 -26 113 -8 127 -17 116 512 647 445 447 504
501 576 523 14 4 -554 8 -1262 8 l-1288 1 0 -3500z"/>
<path d="M2700 6991 c132 -41 213 -149 213 -286 0 -110 -20 -139 -252 -372
-111 -111 -201 -203 -201 -205 0 -2 649 -3 1443 -4 793 0 1471 -4 1507 -8 172
-20 334 -68 485 -143 151 -75 250 -146 379 -271 66 -65 196 -222 196 -238 0
-4 6 -15 14 -23 25 -28 101 -184 134 -271 26 -72 43 -133 68 -245 18 -83 25
-329 12 -435 -32 -257 -145 -526 -306 -730 -66 -83 -220 -226 -310 -288 -190
-130 -424 -223 -627 -248 -22 -3 -53 -7 -70 -9 -16 -3 -858 -5 -1870 -5 -1952
-1 -1897 0 -2040 -47 -216 -70 -419 -248 -510 -448 -15 -33 -31 -67 -36 -77
-25 -50 -50 -191 -53 -298 -2 -49 1 -78 18 -185 26 -158 150 -370 280 -480
116 -97 301 -186 419 -201 23 -3 48 -7 56 -10 10 -3 1013 -5 2731 -4 l164 0
-206 207 c-236 237 -252 261 -251 378 1 83 23 138 78 196 55 59 107 82 195 87
136 8 120 20 662 -522 436 -436 479 -482 497 -532 25 -66 27 -134 4 -205 -16
-51 -43 -81 -492 -532 -412 -414 -484 -482 -536 -507 l-60 -29 1283 0 1282 0
0 3499 0 3500 -2162 -1 c-1190 0 -2152 -4 -2138 -8z"/>
</g>
</svg>
